<?xml version="1.0" standalone="no"?>
<!DOCTYPE svg PUBLIC "-//W3C//DTD SVG 20010904//EN"
 "http://www.w3.org/TR/2001/REC-SVG-20010904/DTD/svg10.dtd">
<svg version="1.0" xmlns="http://www.w3.org/2000/svg"
 width="1585.000000pt" height="1585.000000pt" viewBox="0 0 1585.000000 1585.000000"
 preserveAspectRatio="xMidYMid meet">
<metadata>
Created by potrace 1.14, written by Peter Selinger 2001-2017
</metadata>
<g transform="translate(0.000000,1585.000000) scale(0.100000,-0.100000)"
fill="#000000" stroke="none">
<path d="M80 13090 l0 -160 7885 0 7885 0 0 160 0 160 -7885 0 -7885 0 0 -160z"/>
<path d="M3623 10344 l-243 -215 0 -993 0 -993 243 -231 242 -231 305 0 305 0
237 227 237 227 0 1000 1 1000 -238 212 -237 213 -305 0 -305 0 -242 -216z
m811 -246 l126 -112 0 -855 -1 -856 -125 -117 -125 -118 -140 0 -141 0 -124
116 -124 117 0 857 0 857 123 111 122 111 141 0 141 1 127 -112z"/>
<path d="M860 10340 l0 -180 195 0 c107 0 195 -4 195 -9 0 -5 -36 -28 -80 -50
l-80 -42 0 -1180 0 -1179 510 0 511 0 239 210 240 211 0 377 0 377 -160 138
-161 138 116 123 115 123 -1 349 0 349 -240 213 -239 212 -580 0 -580 0 0
-180z m1117 -288 l122 -107 1 -203 0 -204 -112 -119 -111 -119 -199 0 -198 0
0 430 0 430 188 0 187 0 122 -108z m71 -1219 l132 -116 0 -227 0 -228 -117
-105 -118 -106 -232 -1 -233 0 0 450 0 450 218 0 217 -1 133 -116z"/>
<path d="M6008 10307 l-238 -212 0 -977 0 -977 233 -220 232 -221 333 0 333 0
230 217 229 218 0 552 0 553 -400 0 -400 0 0 -175 0 -175 205 0 205 0 -1 -307
-1 -308 -128 -122 -128 -123 -142 0 -142 0 -129 121 -129 122 0 841 0 841 125
113 124 112 148 0 148 0 127 -112 127 -113 0 -187 1 -188 195 0 195 0 0 260 0
259 -236 211 -236 210 -322 -1 -321 0 -237 -212z"/>
<path d="M7990 10340 l0 -180 197 0 c220 0 219 0 105 -60 l-67 -35 -3 -1182
-2 -1183 508 0 509 0 236 212 237 212 -1 986 0 985 -241 213 -240 212 -619 0
-619 0 0 -180z m1200 -282 l119 -103 0 -845 1 -845 -120 -107 -121 -108 -229
0 -230 0 0 1055 0 1055 231 0 231 0 118 -102z"/>
<path d="M10570 10345 l0 -175 170 0 c94 0 170 -3 170 -7 0 -5 -38 -28 -85
-53 -47 -24 -85 -48 -85 -52 0 -10 -379 -2309 -385 -2335 l-5 -23 203 0 202 0
60 363 61 362 324 3 325 2 60 -362 61 -363 203 -3 203 -2 -6 27 c-3 16 -105
622 -226 1348 -121 726 -225 1348 -231 1383 l-11 62 -504 0 -504 0 0 -175z
m777 -850 c61 -368 112 -680 112 -692 l1 -23 -263 0 -264 0 116 695 116 696
35 -3 34 -3 113 -670z"/>
<path d="M12510 10340 l0 -180 195 0 c107 0 195 -4 195 -8 0 -5 -36 -27 -80
-51 l-80 -42 0 -1180 0 -1179 195 0 195 0 0 637 c0 551 -3 701 -25 1111 -14
261 -25 481 -23 488 2 8 65 -181 142 -420 76 -239 250 -744 386 -1122 l247
-689 212 -3 211 -2 0 1410 0 1410 -192 -2 -193 -3 -3 -475 c-2 -469 -2 -483
38 -1053 23 -318 40 -590 38 -604 -2 -14 -78 232 -170 546 -137 466 -201 665
-349 1081 l-182 510 -378 0 -379 0 0 -180z"/>
<path d="M14900 7880 l0 -180 200 0 200 0 -2 178 -3 177 -197 3 -198 2 0 -180z"/>
<path d="M6760 4820 l0 -660 -3340 0 -3340 0 0 -175 0 -175 3340 0 3340 0 0
-565 0 -565 4545 0 4545 0 0 1400 0 1400 -4545 0 -4545 0 0 -660z m991 -10
c188 -35 260 -152 246 -401 -7 -141 -41 -207 -136 -270 l-24 -15 46 -27 c46
-28 80 -71 99 -129 6 -18 14 -132 18 -253 4 -121 10 -228 14 -237 8 -17 -2
-18 -117 -18 -109 0 -126 2 -133 18 -4 9 -11 109 -14 222 -5 166 -9 212 -23
240 -27 55 -66 73 -161 74 l-81 1 -3 -277 -2 -278 -125 0 -125 0 0 680 0 680
234 0 c128 0 258 -4 287 -10z m1979 -85 l0 -95 -225 0 -225 0 0 -190 0 -190
175 0 175 0 0 -95 0 -95 -172 -2 -173 -3 -3 -202 -2 -203 225 0 225 0 0 -95 0
-95 -350 0 -350 0 0 680 0 680 350 0 350 0 0 -95z m1280 -195 l0 -290 145 0
145 0 0 290 0 290 130 0 130 0 0 -680 0 -680 -130 0 -130 0 0 295 0 295 -145
0 -145 0 0 -295 0 -295 -130 0 -130 0 0 680 0 680 130 0 130 0 0 -290z m2194
253 c3 -21 61 -327 129 -680 l123 -643 -126 0 -127 0 -17 103 c-10 56 -20 112
-23 125 -5 22 -7 22 -163 22 -143 0 -159 -2 -164 -17 -2 -10 -12 -66 -22 -125
l-17 -108 -123 0 c-92 0 -124 3 -124 13 0 6 57 312 127 680 l127 667 197 0
196 0 7 -37z m1748 26 c64 -14 135 -48 165 -81 12 -13 32 -46 45 -73 19 -43
23 -67 23 -165 0 -153 -27 -218 -117 -277 l-40 -27 45 -23 c108 -55 140 -137
135 -346 -3 -136 -4 -144 -33 -197 -20 -37 -45 -65 -78 -87 -90 -60 -124 -66
-414 -71 l-263 -4 0 681 0 681 240 0 c139 0 261 -5 292 -11z"/>
<path d="M7480 4421 l0 -211 85 0 c155 0 175 25 175 219 0 130 0 131 -29 163
-29 33 -31 33 -130 36 l-101 4 0 -211z"/>
<path d="M12987 4600 c-5 -13 -117 -687 -117 -704 0 -3 56 -6 125 -6 111 0
125 2 125 17 0 17 -118 680 -124 698 -2 6 -6 3 -9 -5z"/>
<path d="M14680 4450 l0 -180 83 0 c64 0 89 4 114 20 48 29 57 54 58 155 0
156 -26 185 -170 185 l-85 0 0 -180z"/>
<path d="M14680 3866 l0 -216 90 0 c171 0 194 26 188 219 -5 181 -21 200 -185
209 l-93 5 0 -217z"/>
</g>
</svg>
